<?xml version="1.0" encoding="utf-8"?>
<!-- Generator: Adobe Illustrator 24.1.1, SVG Export Plug-In . SVG Version: 6.00 Build 0)  -->
<svg version="1.1" id="Layer_1" xmlns="http://www.w3.org/2000/svg" xmlns:xlink="http://www.w3.org/1999/xlink" x="0px" y="0px"
	 viewBox="0 0 387.5 106.8" style="enable-background:new 0 0 387.5 106.8;" xml:space="preserve">
<style type="text/css">
	.st0{fill:#A07516;}
	.st1{fill:#EEC62B;}
	.st2{fill:#FFE370;}
	.st3{fill:#F08CA1;}
	.st4{fill:#D8274B;}
	.st5{fill:#A11843;}
	.st6{fill:#FFFFFF;}
	.st7{fill:#1E1E1C;}
</style>
<g>
	<g>
		<polygon class="st0" points="22.8,64.3 27.8,63.1 50.3,85.6 81.1,77.3 84.7,80.9 49,90.6 		"/>
		<polygon class="st1" points="85.4,80.2 81.8,76.6 90,45.9 67.5,23.3 68.8,18.4 95,44.4 		"/>
		<polygon class="st2" points="67.8,18.2 66.5,23.1 35.7,31.4 27.5,62.2 22.5,63.5 32,27.8 		"/>
		<polygon class="st3" points="23.2,19.6 28,24.4 17.1,65.3 47.2,95.3 45.5,101.9 10.5,67.2 		"/>
		<polygon class="st4" points="46.7,102.2 48.5,95.7 89.3,84.6 100.3,43.6 106.8,41.8 94.3,89.4 		"/>
		<polygon class="st5" points="106.3,40.6 99.8,42.3 69.8,12.4 28.8,23.5 24,18.7 71.5,5.8 		"/>
	</g>
	<path class="st6" d="M366.6,78.1H45.9c-4.4,0-7.9-3.5-7.9-7.9V44c0-4.4,3.5-7.9,7.9-7.9h320.7c4.4,0,7.9,3.5,7.9,7.9v26.2
		C374.5,74.6,370.9,78.1,366.6,78.1z"/>
	<g>
		<path class="st7" d="M57.9,42.1c1.1,0.2,1.6,1,1.4,2.1l-0.1,0.6c-0.1,1.1-0.8,1.6-1.9,1.6c-2-0.1-4.3-0.1-6.5-0.1
			c-2.8,0-3.9,0-4.3,2.5c-0.3,1.8,0.2,2.1,2.1,2.9l4.7,1.8c4.1,1.6,5,3.9,4.5,7.8c-0.8,5.9-3.4,7.3-10.3,7.3c-1.5,0-4.2-0.1-7.3-0.7
			c-1.1-0.2-1.6-0.9-1.5-2.1l0.1-0.8c0.1-1.1,0.8-1.6,2-1.6c3.7,0.1,5.4,0.1,6.4,0.1c3.5,0,4.5-0.4,4.8-2.7c0.2-1.8-0.3-2.2-1.9-2.8
			l-4.9-2c-4-1.6-4.9-4.1-4.5-7.7c0.8-5.9,4-7,10.1-7C53.2,41.4,55.6,41.6,57.9,42.1z"/>
		<path class="st7" d="M77.1,49.4h2c1.2,0,1.8,0.7,1.7,1.9l-2.1,15.2c-0.1,1.1-0.8,1.6-1.9,1.6h-0.9c-1.1,0-1.8-0.6-1.8-1.8l0-0.9
			c0-0.5-0.3-0.6-0.7-0.3c-2.6,2.3-4.9,3.4-7.4,3.4c-3.6,0-5.3-2-4.8-5.3L62.9,51c0.1-1.1,0.8-1.6,1.9-1.6h2c1.2,0,1.8,0.7,1.7,1.9
			L67,61.8c-0.2,1.6,0.2,2.1,1.4,2.1c1.6,0,3-0.9,5.2-2.7c0.2-0.2,0.3-0.4,0.3-0.6l1.3-9.5C75.4,49.9,76,49.4,77.1,49.4z"/>
		<path class="st7" d="M102.8,59.1c-1.1,8.2-4.2,9.5-8.4,9.5c-1.7,0-3.7-0.1-5.4-0.4c-0.4-0.1-0.7,0.2-0.7,0.6c0,1-0.1,1.9-0.2,3
			l-0.4,2.5c-0.2,1.1-0.8,1.6-1.9,1.6h-2.1c-1.2,0-1.8-0.7-1.7-1.9L85.3,51c0.1-1.1,0.8-1.6,1.9-1.6h1c1.1,0,1.8,0.6,1.8,1.8l0,0.8
			c0,0.4,0.2,0.6,0.5,0.3c1.8-1.7,4.3-3.4,7.3-3.4C102,49,103.8,51.6,102.8,59.1z M90.6,56.3c-0.3,0.2-0.4,0.4-0.4,0.7l-1,7
			c-0.1,0.4,0.2,0.7,0.6,0.7c1,0,1.8,0,2.3,0c3.6,0,4.4-0.6,5.1-5.7c0.6-4.2,0.4-5.4-1.4-5.4C93.9,53.7,92.5,54.5,90.6,56.3z"/>
		<path class="st7" d="M124.9,55.3c-0.5,3.6-2.9,4.9-7.7,5.2l-4.9,0.4c-0.4,0-0.7,0.3-0.6,0.7c0.3,2.1,1.6,2.5,3.7,2.5
			c1.4,0,3.5-0.1,5.4-0.3c1.2-0.1,1.8,0.4,1.9,1.6l0,0.2c0.1,1-0.3,1.8-1.3,2.1c-2.1,0.6-4.7,0.8-6.7,0.8c-7.3,0-9.6-3.5-8.8-10.2
			c0.9-7.5,4-9.5,10.8-9.5C123.8,48.9,125.4,51.3,124.9,55.3z M116.5,53c-2.7,0-3.7,0.7-4.3,3.9c-0.1,0.5,0.2,0.7,0.6,0.7l3.6-0.3
			c1.9-0.2,2.8-0.6,3.1-2.4C119.6,53,118.8,52.9,116.5,53z"/>
		<path class="st7" d="M142.3,50.9l-0.4,1.5c-0.3,1.1-1,1.6-2.2,1.7c-1.7,0.2-3.1,0.8-5.4,2.1c-0.3,0.1-0.5,0.4-0.5,0.7l-1.3,9.5
			c-0.1,1.1-0.8,1.6-1.9,1.6h-2c-1.2,0-1.8-0.7-1.7-1.9l2.1-15.2c0.1-1.1,0.8-1.6,1.9-1.6h0.9c1.1,0,1.7,0.5,1.8,1.6l0,1.1
			c0,0.4,0.5,0.4,1,0c2.2-1.9,4.2-3,6.2-3.1C142,48.8,142.6,49.6,142.3,50.9z"/>
		<path class="st7" d="M151.6,54.8c1.4-11.1,5.6-13.4,13.4-13.4c2,0,4.3,0.2,6.4,0.6c1.1,0.2,1.6,1,1.4,2.1l-0.2,0.9
			c-0.2,1.1-1,1.6-2.3,1.6c-1.9-0.1-3.6-0.1-5.2-0.1c-4.8,0-6.4,1.5-7.4,8.8c-0.8,6.4-0.1,8.4,2.9,8.4c2,0,3.3-0.8,5-2.4
			c0.3-0.2,0.4-0.4,0.4-0.8l0.8-5.9c0.1-1.1,0.8-1.6,1.9-1.6h2c1.2,0,1.8,0.7,1.6,1.9l-1.6,11.6c-0.2,1.1-0.8,1.7-1.9,1.7h-0.8
			c-1.1,0-1.8-0.6-1.8-1.7l0-0.7c0-0.4-0.3-0.5-0.6-0.2c-1.8,1.8-4.1,3.1-7.3,3.1C153,68.6,150.4,64.7,151.6,54.8z"/>
		<path class="st7" d="M190.3,50.9l-0.4,1.5c-0.3,1.1-1,1.6-2.2,1.7c-1.7,0.2-3.1,0.8-5.4,2.1c-0.3,0.1-0.5,0.4-0.5,0.7l-1.3,9.5
			c-0.1,1.1-0.8,1.6-1.9,1.6h-2c-1.2,0-1.8-0.7-1.7-1.9L177,51c0.1-1.1,0.8-1.6,1.9-1.6h0.9c1.1,0,1.7,0.5,1.8,1.6l0,1.1
			c0,0.4,0.5,0.4,1,0c2.2-1.9,4.2-3,6.2-3.1C190,48.8,190.6,49.6,190.3,50.9z"/>
		<path class="st7" d="M210,55.3c-0.5,3.6-2.9,4.9-7.7,5.2l-4.9,0.4c-0.4,0-0.7,0.3-0.6,0.7c0.3,2.1,1.6,2.5,3.7,2.5
			c1.4,0,3.5-0.1,5.4-0.3c1.2-0.1,1.8,0.4,1.9,1.6l0,0.2c0.1,1-0.3,1.8-1.3,2.1c-2.1,0.6-4.7,0.8-6.7,0.8c-7.3,0-9.6-3.5-8.8-10.2
			c0.9-7.5,4-9.5,10.8-9.5C208.9,48.9,210.6,51.3,210,55.3z M201.6,53c-2.7,0-3.7,0.7-4.3,3.9c-0.1,0.5,0.2,0.7,0.6,0.7l3.6-0.3
			c1.9-0.2,2.8-0.6,3.1-2.4C204.8,53,204,52.9,201.6,53z"/>
		<path class="st7" d="M212.5,58.4c1.3-8.3,4.4-9.5,10-9.5c2.6,0,6,0.3,8.2,0.8c0.8,0.2,1.6,0.6,1.4,2L230,66.4
			c-0.2,1.1-0.8,1.7-1.9,1.7h-0.9c-1.2,0-1.8-0.6-1.8-1.8v-0.6c0-0.5-0.2-0.7-0.6-0.3c-1.4,1.3-3.6,3.1-7.1,3.2
			C213,68.6,211.4,65.7,212.5,58.4z M224.9,60.9c0.2-0.2,0.3-0.4,0.3-0.8l0.9-6.5c0.1-0.4-0.2-0.7-0.6-0.7h-2.2
			c-3.5,0-4.5,0.6-5.2,5.5c-0.7,4.8-0.4,5.6,1.4,5.6C221.6,63.9,223.2,62.7,224.9,60.9z"/>
		<path class="st7" d="M236.7,62.6l1.3-8.8c0-0.4-0.2-0.6-0.5-0.6h-1c-1.1,0-1.7-0.7-1.5-1.7l0-0.4c0.1-1,0.7-1.5,1.7-1.6l1.4-0.1
			c0.4,0,0.6-0.2,0.6-0.6l0.4-3.1c0.2-1.1,0.8-1.6,1.9-1.6h1.9c1.2,0,1.8,0.7,1.7,1.9l-0.4,2.7c0,0.4,0.2,0.6,0.5,0.6h2.8
			c1.1,0,1.7,0.6,1.5,1.7l-0.1,0.5c-0.1,1-0.7,1.5-1.7,1.5h-3.1c-0.4,0-0.6,0.2-0.6,0.5l-1.2,8.4c-0.2,1.4,0.1,1.8,1.6,1.8h0.9
			c1,0,1.6,0.5,1.7,1.6l0.1,0.9c0.1,1-0.4,1.7-1.4,1.9c-1.4,0.3-2.9,0.3-3.8,0.3C238,68.5,236.2,66.3,236.7,62.6z"/>
		<path class="st7" d="M269.6,68.4c-4.4,0-7,0-9.7-0.2c-1-0.1-1.5-0.7-1.3-1.6l3.2-23.3c0.1-0.9,0.6-1.4,1.5-1.4
			c2.4-0.2,4.7-0.2,8.2-0.2c6.5,0,9.2,1.6,8.4,7c-0.5,3.6-1.8,5.5-5.1,5.8c-0.4,0-0.4,0.2,0,0.3c3.7,0.6,4.8,3.1,4.2,7.1
			C278.4,67.1,275.8,68.4,269.6,68.4L269.6,68.4z M268.6,64c3.4,0,4.4-0.7,4.8-3.8c0.4-3-0.3-3.8-3.4-3.8h-3.8
			c-0.4,0-0.6,0.2-0.7,0.6l-0.9,6.2c-0.1,0.4,0.1,0.7,0.5,0.7C266.2,64,267.3,64,268.6,64L268.6,64z M266.2,51.9
			c-0.1,0.4,0.2,0.7,0.6,0.7h3.3c2.8,0,3.8-0.7,4.3-3.6c0.3-2.5-0.4-3-3.1-3h-3.6c-0.4,0-0.6,0.2-0.7,0.6L266.2,51.9L266.2,51.9z"/>
		<path class="st7" d="M298.6,49.4h2c1.2,0,1.8,0.7,1.7,1.9l-2.1,15.2c-0.1,1.1-0.8,1.6-1.9,1.6h-0.9c-1.1,0-1.8-0.6-1.8-1.8l0-0.9
			c0-0.5-0.3-0.6-0.7-0.3c-2.6,2.3-4.9,3.4-7.4,3.4c-3.6,0-5.3-2-4.8-5.3l1.7-12.3c0.1-1.1,0.8-1.6,1.9-1.6h2c1.2,0,1.8,0.7,1.7,1.9
			l-1.5,10.5c-0.2,1.6,0.2,2.1,1.4,2.1c1.6,0,3-0.9,5.2-2.7c0.2-0.2,0.3-0.4,0.3-0.6l1.3-9.5C296.8,49.9,297.4,49.4,298.6,49.4z"/>
		<path class="st7" d="M305,58.4c1.1-8.3,4.1-9.5,8.4-9.5c1.7,0,3.7,0.1,5.4,0.4c0.4,0.1,0.7-0.2,0.7-0.6c0-1,0.1-1.9,0.2-3l0.4-2.5
			c0.2-1.1,0.8-1.6,1.9-1.6h2.1c1.2,0,1.8,0.7,1.7,1.9l-3.2,23.1c-0.1,1.1-0.8,1.6-1.9,1.6h-1c-1.1,0-1.8-0.6-1.8-1.8l0-0.8
			c0-0.4-0.2-0.6-0.5-0.3c-1.8,1.7-4.3,3.4-7.3,3.4C306.1,68.6,304,65.9,305,58.4z M317.3,61.2c0.3-0.2,0.4-0.4,0.4-0.7l1-7
			c0.1-0.4-0.2-0.7-0.6-0.7c-1,0-1.8,0-2.3,0c-3.6,0-4.4,0.6-5.1,5.7c-0.6,4.2-0.4,5.4,1.4,5.4C313.9,63.8,315.3,62.9,317.3,61.2z"
			/>
		<path class="st7" d="M327.5,58.4c1.1-8.3,4.1-9.5,8.4-9.5c1.7,0,3.7,0.1,5.4,0.4c0.4,0.1,0.7-0.2,0.7-0.6c0-1,0.1-1.9,0.2-3
			l0.4-2.5c0.2-1.1,0.8-1.6,1.9-1.6h2.1c1.2,0,1.8,0.7,1.7,1.9L345,66.5c-0.1,1.1-0.8,1.6-1.9,1.6h-1c-1.1,0-1.8-0.6-1.8-1.8l0-0.8
			c0-0.4-0.2-0.6-0.5-0.3c-1.8,1.7-4.3,3.4-7.3,3.4C328.6,68.6,326.5,65.9,327.5,58.4z M339.8,61.2c0.3-0.2,0.4-0.4,0.4-0.7l1-7
			c0.1-0.4-0.2-0.7-0.6-0.7c-1,0-1.8,0-2.3,0c-3.6,0-4.4,0.6-5.1,5.7c-0.6,4.2-0.4,5.4,1.4,5.4C336.4,63.8,337.8,62.9,339.8,61.2z"
			/>
		<path class="st7" d="M350.5,74.3l-0.1-0.4c-0.2-1,0.2-1.7,1.2-2c2-0.6,3.9-1.3,5.6-3.1c0.4-0.4,0.2-0.8-0.3-0.8h-0.5
			c-2,0-3.3-1.5-3.7-3.6l-2.4-13.2c-0.2-1.2,0.4-1.9,1.6-1.9h2.4c1.1,0,1.7,0.6,1.8,1.7l1.6,12.6c0,0.4,0.3,0.7,0.7,0.7
			c1.4,0,1.6-0.1,2.2-1.4c1.5-3.7,2.7-7.3,3.6-11.8c0.2-1.1,0.8-1.6,1.9-1.6h2.3c1.2,0,1.9,0.7,1.6,2c-1.2,5.4-3.3,10.9-5.3,14.6
			c-3.6,6.7-7.4,9.2-12.3,10C351.3,76,350.7,75.4,350.5,74.3z"/>
	</g>
</g>
</svg>
